<?xml version="1.0" encoding="utf-8"?>
<!-- Generator: Adobe Illustrator 25.2.3, SVG Export Plug-In . SVG Version: 6.00 Build 0)  -->
<svg version="1.1" id="Layer_1" xmlns="http://www.w3.org/2000/svg" xmlns:xlink="http://www.w3.org/1999/xlink" x="0px" y="0px"
	 viewBox="0 0 144 56" style="enable-background:new 0 0 144 56;" xml:space="preserve">
<style type="text/css">
	.st0{fill:#0071CE;}
</style>
<g>
	<g>
		<g>
			<g>
				<path class="st0" d="M3.15,38.77l8.98,5.18v-2.54c0-1.59-0.86-3.07-2.24-3.86L1,32.42v2.62C1,36.58,1.82,38,3.15,38.77z"/>
			</g>
			<path class="st0" d="M32.02,17.14l-2.27-1.31l1.42-1.42c0.66-0.66,1.1-1.51,1.25-2.44c0.05-0.29-0.03-0.64-0.47-0.57l-7.97,1.08
				l-4.23-2.44c-1.33-0.77-2.97-0.77-4.3,0l-4.23,2.44L3.23,11.4c-0.44-0.08-0.52,0.27-0.47,0.57c0.15,0.92,0.59,1.77,1.25,2.44
				l1.42,1.42l-2.27,1.31C1.82,17.91,1,19.33,1,20.86v9.93l9.59,5.53c1.82,1.04,2.96,2.99,2.96,5.09v3.36l1.89,1.09
				c1.33,0.77,2.97,0.77,4.3,0l12.29-7.09c1.33-0.77,2.15-2.19,2.15-3.72V20.86C34.17,19.33,33.35,17.91,32.02,17.14z M10.13,28.5
				c-1.79,0-3.24-1.45-3.24-3.24c0-1.11,0.56-2.08,1.4-2.67l1.81,1.05c-0.59,0.3-1,0.91-1,1.62c0,1.01,0.82,1.83,1.83,1.83
				s1.83-0.82,1.83-1.83c0-0.03-0.01-0.06-0.01-0.09l0.6,0.35C13.23,27.18,11.84,28.5,10.13,28.5z M19.49,28.26
				c0,0.02-0.01,0.04-0.01,0.07c0,0.01-0.01,0.03-0.01,0.04c-0.29,1.4-1.86,3.21-1.89,3.25v0c0,0,0,0,0,0c0,0,0,0,0,0v0
				c-0.03-0.04-1.58-1.84-1.88-3.24c0-0.02-0.01-0.04-0.01-0.06c0-0.02-0.01-0.04-0.01-0.06l0.01,0c-0.02-0.1-0.03-0.2-0.03-0.3
				c0-1.07,0.87-1.93,1.93-1.93c1.07,0,1.93,0.87,1.93,1.93C19.52,28.06,19.5,28.16,19.49,28.26L19.49,28.26z M25.04,28.5
				c-1.7,0-3.1-1.32-3.23-2.98l0.6-0.35c0,0.03-0.01,0.06-0.01,0.09c0,1.01,0.82,1.83,1.83,1.83s1.83-0.82,1.83-1.83
				c0-0.71-0.41-1.32-1-1.62l1.81-1.05c0.85,0.58,1.4,1.56,1.4,2.67C28.28,27.05,26.83,28.5,25.04,28.5z"/>
		</g>
		<g>
			<g>
				<path class="st0" d="M64.44,34.2c-1.03,1.84-2.49,3.28-4.38,4.33c-1.89,1.05-4.12,1.57-6.67,1.57h-9.65V15.88h9.65
					c2.55,0,4.78,0.51,6.69,1.52c1.9,1.02,3.36,2.44,4.38,4.26c1.01,1.83,1.52,3.91,1.52,6.26C65.98,30.27,65.47,32.36,64.44,34.2z
					 M57.46,32.47c1.14-1.07,1.71-2.59,1.71-4.55c0-1.94-0.57-3.45-1.71-4.53c-1.14-1.08-2.7-1.63-4.69-1.63h-2.29v12.32h2.29
					C54.76,34.08,56.32,33.54,57.46,32.47z"/>
				<path class="st0" d="M79.27,21.54c0.99,0.58,1.73,1.39,2.21,2.41v-3.05h6.71v19.2h-6.71v-3.05c-0.48,1.03-1.21,1.83-2.21,2.41
					c-0.99,0.58-2.16,0.87-3.51,0.87c-1.53,0-2.91-0.39-4.14-1.18c-1.23-0.79-2.2-1.93-2.91-3.42c-0.71-1.49-1.06-3.24-1.06-5.25
					c0-2.01,0.35-3.75,1.06-5.24c0.71-1.48,1.68-2.62,2.91-3.4c1.23-0.79,2.61-1.18,4.14-1.18C77.11,20.67,78.28,20.96,79.27,21.54z
					 M75.44,27.59c-0.65,0.7-0.97,1.66-0.97,2.89c0,1.25,0.32,2.23,0.97,2.93c0.65,0.7,1.5,1.04,2.55,1.04c1,0,1.84-0.35,2.5-1.06
					c0.66-0.71,0.99-1.68,0.99-2.91c0-1.21-0.33-2.17-0.99-2.87c-0.66-0.71-1.49-1.06-2.5-1.06C76.94,26.55,76.09,26.9,75.44,27.59z
					"/>
				<path class="st0" d="M108.1,21.85c1.23,0.79,2.2,1.92,2.91,3.4c0.71,1.48,1.06,3.23,1.06,5.24c0,2.01-0.35,3.76-1.06,5.25
					c-0.71,1.49-1.68,2.63-2.91,3.42c-1.23,0.79-2.61,1.18-4.14,1.18c-1.35,0-2.51-0.29-3.49-0.87c-0.98-0.58-1.71-1.39-2.19-2.41
					v3.05h-6.74V14.78h6.74v9.17c0.48-1.03,1.21-1.83,2.19-2.41c0.98-0.58,2.14-0.87,3.49-0.87
					C105.49,20.67,106.87,21.06,108.1,21.85z M99.24,27.61c-0.66,0.71-0.99,1.67-0.99,2.87c0,1.23,0.33,2.2,0.99,2.91
					c0.66,0.71,1.49,1.06,2.5,1.06c1.05,0,1.9-0.35,2.55-1.04c0.65-0.7,0.97-1.67,0.97-2.93c0-1.23-0.32-2.2-0.97-2.89
					c-0.65-0.7-1.5-1.04-2.55-1.04C100.73,26.55,99.9,26.91,99.24,27.61z"/>
				<path class="st0" d="M121.17,14.78V40.1h-6.74V14.78H121.17z"/>
				<path class="st0" d="M142.83,31.72h-12.69c0.11,2.17,1.06,3.25,2.84,3.25c0.66,0,1.21-0.16,1.64-0.48
					c0.43-0.32,0.73-0.74,0.89-1.27h7.12c-0.25,1.35-0.81,2.56-1.68,3.64c-0.87,1.08-1.96,1.93-3.28,2.55
					c-1.32,0.62-2.77,0.92-4.35,0.92c-1.92,0-3.61-0.39-5.08-1.18c-1.47-0.79-2.62-1.93-3.44-3.42c-0.82-1.49-1.23-3.24-1.23-5.25
					c0-2.01,0.41-3.75,1.23-5.24c0.82-1.48,1.97-2.62,3.46-3.4c1.48-0.79,3.17-1.18,5.06-1.18c1.92,0,3.6,0.39,5.06,1.16
					c1.46,0.78,2.59,1.88,3.4,3.32c0.81,1.44,1.21,3.1,1.21,5C143,30.62,142.94,31.15,142.83,31.72z M135.37,26.69
					c-0.55-0.5-1.23-0.75-2.05-0.75c-0.89,0-1.61,0.25-2.17,0.75c-0.56,0.5-0.88,1.24-0.97,2.22h5.99
					C136.18,27.93,135.92,27.19,135.37,26.69z"/>
			</g>
		</g>
	</g>
</g>
</svg>
